<svg xmlns="http://www.w3.org/2000/svg" viewBox="0 0 128 128">
  <defs>
    <linearGradient id="field" x1="0%" y1="0%" x2="0%" y2="100%">
      <stop offset="0%" stop-color="#3cd15b"/>
      <stop offset="100%" stop-color="#0f8d2e"/>
    </linearGradient>
  </defs>
  <rect width="128" height="128" rx="26" fill="#121b2b"/>
  <rect x="36" y="16" width="56" height="96" rx="12" fill="#0a0f1c" stroke="#d9e3ff" stroke-width="4"/>
  <rect x="42" y="22" width="44" height="84" rx="8" fill="url(#field)" stroke="#d9f7e0" stroke-width="3"/>
  <path d="M64 22v84M42 64h44M42 44h10a6 6 0 0 1 6 6v12a6 6 0 0 1-6 6h-10m44-24h-10a6 6 0 0 0-6 6v12a6 6 0 0 0 6 6h10M64 52a6 6 0 1 0 0 12 6 6 0 0 0 0-12Z" stroke="#d9f7e0" stroke-width="2" fill="none"/>
  <circle cx="64" cy="108" r="6" fill="#d9f7e0"/>
  <circle cx="64" cy="16" r="4" fill="#d9f7e0"/>
  <path d="M34 70a30 30 0 0 0-8 20v16l18-10M94 70a30 30 0 0 1 8 20v16l-18-10" fill="none" stroke="#2fc360" stroke-width="5" stroke-linecap="round" stroke-linejoin="round"/>
</svg>
